<svg width="121" height="32" viewBox="0 0 121 32" fill="none" xmlns="http://www.w3.org/2000/svg">
<path d="M99.8843 19.5569C96.0504 21.7978 93.1246 23.5294 90.2997 25.1591C89.2908 25.7702 88.2819 26.2795 87.3739 26.9925C86.0623 27.9093 84.2463 28.9279 85.2552 30.8632C86.2641 32.6966 88.181 31.8818 89.5934 31.3725C91.1068 30.965 92.6202 30.1502 94.0326 29.4372C100.591 26.2795 107.148 23.0201 113.605 19.7606C115.321 18.8439 117.137 18.029 118.65 16.8067C121.878 14.3621 121.677 11.9175 118.145 10.084C113.404 7.63941 108.561 5.39851 103.718 3.15762C101.7 2.13904 99.5816 1.12045 97.4629 0.407444C96.2522 9.31936e-06 94.8398 0.101859 93.5282 0C93.1246 2.85204 94.7389 3.4632 96.1513 4.17621C99.6825 6.11152 103.315 7.94499 106.846 9.8803C108.056 10.5933 109.368 11.3063 110.579 12.9361C108.763 13.1398 107.047 13.4453 105.231 13.5472C91.6113 14.2602 78.0919 14.9732 64.4717 15.6862C44.6972 16.7048 25.0236 17.7234 5.24906 18.8438C3.63482 18.9457 2.02056 19.5569 0.103645 20.0662C1.91967 22.8163 4.03838 22.2052 5.75352 22.1033C15.439 21.8996 25.2254 21.4922 34.9108 21.1866C55.7952 20.4736 76.6795 19.7606 97.5638 19.0476C98.0683 19.1494 98.3709 19.2513 99.8843 19.5569Z" fill="white"/>
</svg>
